<svg width="32" height="32" viewBox="0 0 32 32" fill="none" xmlns="http://www.w3.org/2000/svg">
<path fill-rule="evenodd" clip-rule="evenodd" d="M19.5553 8.79581L16.2624 15.9337L12.3704 10.8764V16.8242L11.9902 16.9889L11.9902 16.9889L11.99 16.9889L11.9888 16.9895L11.9828 16.9921C11.9773 16.9945 11.9686 16.9983 11.9571 17.0034C11.9339 17.0137 11.899 17.0293 11.8536 17.05C11.7629 17.0912 11.6304 17.1526 11.4664 17.2317C11.1379 17.3901 10.6849 17.6186 10.1877 17.8983C9.17467 18.4682 8.04858 19.2125 7.38512 19.9756C6.68272 20.7835 6.08939 22.0836 5.66385 23.2407C5.45502 23.8086 5.29345 24.3227 5.18419 24.6945C5.12963 24.8802 5.08829 25.0298 5.06079 25.1322C5.04705 25.1834 5.03677 25.2228 5.03003 25.2489C5.02667 25.262 5.02419 25.2717 5.0226 25.278C5.02181 25.2811 5.02125 25.2834 5.0209 25.2847L5.02056 25.2861L5.02053 25.2862C5.02054 25.2862 5.02056 25.2861 4.40796 25.1342C3.79536 24.9822 3.79538 24.9821 3.79541 24.982L3.7957 24.9809L3.79638 24.9781C3.79695 24.9758 3.79775 24.9727 3.79878 24.9686C3.80083 24.9605 3.8038 24.9488 3.80766 24.9338C3.8154 24.9038 3.82676 24.8603 3.84165 24.8049C3.87144 24.6939 3.91544 24.5348 3.97306 24.3387C4.08817 23.9469 4.25836 23.4053 4.4791 22.805C4.91271 21.6259 5.56981 20.1396 6.43249 19.1474C7.24689 18.2107 8.536 17.3791 9.56873 16.7981C10.0944 16.5024 10.5719 16.2616 10.9182 16.0947C10.9867 16.0616 11.0502 16.0314 11.108 16.0042V9.28443L9.00737 7.20176L9.89613 6.30533L11.9778 8.36916L18.7308 7.82934L20.2728 6.18042L21.1948 7.04264L19.5553 8.79581ZM12.9485 9.55791L17.9998 9.15413L15.9902 13.5103L12.9485 9.55791Z" fill="#FA36C3"/>
<path fill-rule="evenodd" clip-rule="evenodd" d="M18.2872 16.5309C17.4713 16.2817 16.5144 16.0554 15.7844 16.0587C15.0677 16.062 14.1292 16.2885 13.3294 16.5358C12.9382 16.6568 12.5956 16.7777 12.3511 16.8683C12.229 16.9136 12.1319 16.9511 12.0659 16.9771C12.0329 16.99 12.0077 17.0001 11.9911 17.0068C11.9828 17.0101 11.9767 17.0126 11.9728 17.0142L11.9687 17.0159L11.9679 17.0162C11.9679 17.0162 11.968 17.0161 11.7277 16.4325C11.4874 15.8489 11.4875 15.8488 11.4876 15.8488L11.4902 15.8477L11.4966 15.8451C11.502 15.8429 11.5096 15.8398 11.5195 15.8359C11.5392 15.8279 11.5677 15.8165 11.6041 15.8022C11.677 15.7736 11.7818 15.7331 11.9124 15.6847C12.1731 15.5881 12.5382 15.4592 12.9566 15.3298C13.7759 15.0765 14.8644 14.8006 15.7787 14.7964C16.7101 14.7922 17.8201 15.0684 18.6558 15.3236C19.0825 15.4539 19.455 15.5842 19.721 15.6821C19.8542 15.7311 19.9612 15.7721 20.0355 15.8011C20.0727 15.8156 20.1017 15.8272 20.1218 15.8352C20.1319 15.8392 20.1397 15.8424 20.1452 15.8446L20.1466 15.8452C21.3846 16.3173 22.3798 16.8657 23.2298 17.6092C24.0814 18.3541 24.7583 19.2694 25.3918 20.4365C26.0666 21.6795 26.3417 23.1733 26.455 24.3166C26.5124 24.8955 26.5297 25.4001 26.5327 25.761C26.5342 25.9417 26.5321 26.0871 26.5295 26.1884C26.5283 26.2391 26.5269 26.2789 26.5258 26.3066C26.5253 26.3205 26.5248 26.3313 26.5244 26.3391C26.5243 26.3415 26.5242 26.3437 26.5241 26.3455L26.524 26.3483L26.5238 26.3511L26.5238 26.3521L26.5238 26.3524C26.5238 26.3526 26.5238 26.3527 25.8935 26.3195C25.2632 26.2863 25.2632 26.2864 25.2632 26.2865L25.2632 26.2859C25.2632 26.285 25.2633 26.2833 25.2634 26.2808C25.2637 26.2759 25.264 26.2679 25.2644 26.2569C25.2653 26.235 25.2665 26.2013 25.2676 26.1569C25.2698 26.0682 25.2717 25.9369 25.2704 25.7714C25.2676 25.44 25.2517 24.9744 25.1988 24.4411C25.0917 23.3605 24.8386 22.0632 24.2824 21.0387C23.6977 19.9616 23.1069 19.1788 22.3988 18.5594C21.6906 17.94 20.8361 17.4585 19.6908 17.0223L19.6834 17.0196L19.6764 17.0167L19.6763 17.0166L19.6762 17.0166L19.6755 17.0163L19.6713 17.0146C19.6694 17.0139 19.6671 17.0129 19.6642 17.0117C19.661 17.0104 19.6571 17.0089 19.6526 17.0071C19.6357 17.0003 19.61 16.9901 19.5763 16.9769C19.5089 16.9506 19.4098 16.9126 19.2852 16.8668C19.0357 16.775 18.6862 16.6527 18.2872 16.5309Z" fill="#FA36C3"/>
<path fill-rule="evenodd" clip-rule="evenodd" d="M12.3587 16.4075L12.4843 22.2428L11.2223 22.2699L11.0967 16.4346L12.3587 16.4075Z" fill="#FA36C3"/>
<path fill-rule="evenodd" clip-rule="evenodd" d="M23.6265 16.6186C21.4003 16.3204 18.6031 16.0339 16.2556 16.0649C14.146 16.0928 11.4326 16.4564 9.22566 16.8187C8.12665 16.9991 7.16145 17.1778 6.47119 17.3114C6.12615 17.3782 5.85006 17.4336 5.66057 17.4723C5.56584 17.4916 5.49277 17.5067 5.44358 17.517C5.41899 17.5221 5.40036 17.526 5.38799 17.5287L5.36988 17.5325C5.36987 17.5325 5.36987 17.5325 5.34922 17.4355C5.3316 17.3527 5.29895 17.1993 5.23845 16.9152C5.10703 16.2978 5.10709 16.2978 5.10718 16.2978L5.12757 16.2935C5.14078 16.2907 5.16025 16.2866 5.18571 16.2813C5.23663 16.2707 5.31151 16.2552 5.40815 16.2354C5.60141 16.196 5.88173 16.1397 6.23138 16.0721C6.9305 15.9368 7.90778 15.7558 9.02116 15.5731C11.239 15.209 14.0299 14.8319 16.2389 14.8027C18.6801 14.7705 21.5502 15.0669 23.794 15.3674C24.9194 15.5181 25.8939 15.6708 26.5874 15.7859C26.9342 15.8434 27.211 15.8916 27.4015 15.9255C27.4968 15.9424 27.5705 15.9558 27.6206 15.9649C27.6456 15.9695 27.6648 15.9731 27.6778 15.9755C27.6843 15.9767 27.6893 15.9776 27.6927 15.9782L27.698 15.9792C27.6981 15.9792 27.6981 15.9793 27.5816 16.5996C27.5009 17.0296 27.4761 17.1615 27.4685 17.202L27.4652 17.2199L27.465 17.2199L27.4477 17.2166C27.4356 17.2144 27.4174 17.211 27.3934 17.2066C27.3453 17.1978 27.2736 17.1849 27.1806 17.1683C26.9944 17.1352 26.7224 17.0879 26.3808 17.0312C25.6973 16.9178 24.7361 16.7672 23.6265 16.6186Z" fill="#FA36C3"/>
<path fill-rule="evenodd" clip-rule="evenodd" d="M20.5777 23.4325L18.6593 8.26756L19.9116 8.10913L21.8301 23.2741L20.5777 23.4325Z" fill="#FA36C3"/>
<path fill-rule="evenodd" clip-rule="evenodd" d="M9.03471 3.77396C9.26635 3.77396 9.45413 3.58618 9.45413 3.35454C9.45413 3.1229 9.26635 2.93512 9.03471 2.93512C8.80308 2.93512 8.61529 3.1229 8.61529 3.35454C8.61529 3.58618 8.80308 3.77396 9.03471 3.77396ZM9.03471 4.40512C9.61494 4.40512 10.0853 3.93476 10.0853 3.35454C10.0853 2.77432 9.61494 2.30396 9.03471 2.30396C8.45449 2.30396 7.98413 2.77432 7.98413 3.35454C7.98413 3.93476 8.45449 4.40512 9.03471 4.40512Z" fill="#FA36C3"/>
<path fill-rule="evenodd" clip-rule="evenodd" d="M4.40776 17.3201C4.6394 17.3201 4.82718 17.1323 4.82718 16.9007C4.82718 16.669 4.6394 16.4813 4.40776 16.4813C4.17612 16.4813 3.98834 16.669 3.98834 16.9007C3.98834 17.1323 4.17612 17.3201 4.40776 17.3201ZM4.40776 17.9513C4.98798 17.9513 5.45834 17.4809 5.45834 16.9007C5.45834 16.3205 4.98798 15.8501 4.40776 15.8501C3.82754 15.8501 3.35718 16.3205 3.35718 16.9007C3.35718 17.4809 3.82754 17.9513 4.40776 17.9513Z" fill="#FA36C3"/>
<path fill-rule="evenodd" clip-rule="evenodd" d="M28.4432 17.0598C28.6748 17.0598 28.8626 16.8721 28.8626 16.6404C28.8626 16.4088 28.6748 16.221 28.4432 16.221C28.2115 16.221 28.0237 16.4088 28.0237 16.6404C28.0237 16.8721 28.2115 17.0598 28.4432 17.0598ZM28.4432 17.691C29.0234 17.691 29.4937 17.2206 29.4937 16.6404C29.4937 16.0602 29.0234 15.5898 28.4432 15.5898C27.8629 15.5898 27.3926 16.0602 27.3926 16.6404C27.3926 17.2206 27.8629 17.691 28.4432 17.691Z" fill="#FA36C3"/>
<path fill-rule="evenodd" clip-rule="evenodd" d="M21.0801 24.9026C21.3118 24.9026 21.4995 24.7148 21.4995 24.4832C21.4995 24.2516 21.3118 24.0638 21.0801 24.0638C20.8485 24.0638 20.6607 24.2516 20.6607 24.4832C20.6607 24.7148 20.8485 24.9026 21.0801 24.9026ZM21.0801 25.5338C21.6603 25.5338 22.1307 25.0634 22.1307 24.4832C22.1307 23.903 21.6603 23.4326 21.0801 23.4326C20.4999 23.4326 20.0295 23.903 20.0295 24.4832C20.0295 25.0634 20.4999 25.5338 21.0801 25.5338Z" fill="#FA36C3"/>
<path fill-rule="evenodd" clip-rule="evenodd" d="M25.9185 28.0738C26.1501 28.0738 26.3379 27.886 26.3379 27.6543C26.3379 27.4227 26.1501 27.2349 25.9185 27.2349C25.6869 27.2349 25.4991 27.4227 25.4991 27.6543C25.4991 27.886 25.6869 28.0738 25.9185 28.0738ZM25.9185 28.7049C26.4987 28.7049 26.9691 28.2346 26.9691 27.6543C26.9691 27.0741 26.4987 26.6038 25.9185 26.6038C25.3383 26.6038 24.8679 27.0741 24.8679 27.6543C24.8679 28.2346 25.3383 28.7049 25.9185 28.7049Z" fill="#FA36C3"/>
<path fill-rule="evenodd" clip-rule="evenodd" d="M11.7391 23.8521C11.9707 23.8521 12.1585 23.6643 12.1585 23.4327C12.1585 23.201 11.9707 23.0132 11.7391 23.0132C11.5074 23.0132 11.3196 23.201 11.3196 23.4327C11.3196 23.6643 11.5074 23.8521 11.7391 23.8521ZM11.7391 24.4832C12.3193 24.4832 12.7896 24.0129 12.7896 23.4327C12.7896 22.8524 12.3193 22.3821 11.7391 22.3821C11.1588 22.3821 10.6885 22.8524 10.6885 23.4327C10.6885 24.0129 11.1588 24.4832 11.7391 24.4832Z" fill="#FA36C3"/>
<path fill-rule="evenodd" clip-rule="evenodd" d="M4.40776 26.6155C4.6394 26.6155 4.82718 26.4277 4.82718 26.1961C4.82718 25.9645 4.6394 25.7767 4.40776 25.7767C4.17612 25.7767 3.98834 25.9645 3.98834 26.1961C3.98834 26.4277 4.17612 26.6155 4.40776 26.6155ZM4.40776 27.2467C4.98798 27.2467 5.45834 26.7763 5.45834 26.1961C5.45834 25.6159 4.98798 25.1455 4.40776 25.1455C3.82754 25.1455 3.35718 25.6159 3.35718 26.1961C3.35718 26.7763 3.82754 27.2467 4.40776 27.2467Z" fill="#FA36C3"/>
<path fill-rule="evenodd" clip-rule="evenodd" d="M21.0269 3.83695C21.2585 3.83695 21.4463 3.64917 21.4463 3.41753C21.4463 3.18589 21.2585 2.99811 21.0269 2.99811C20.7953 2.99811 20.6075 3.18589 20.6075 3.41753C20.6075 3.64917 20.7953 3.83695 21.0269 3.83695ZM21.0269 4.46811C21.6071 4.46811 22.0775 3.99775 22.0775 3.41753C22.0775 2.83731 21.6071 2.36694 21.0269 2.36694C20.4467 2.36694 19.9763 2.83731 19.9763 3.41753C19.9763 3.99775 20.4467 4.46811 21.0269 4.46811Z" fill="#FA36C3"/>
<path fill-rule="evenodd" clip-rule="evenodd" d="M11.0539 4.95587H6.94287V4.32471H11.0539V4.95587Z" fill="#FA36C3"/>
<path fill-rule="evenodd" clip-rule="evenodd" d="M5.18427 19.1159L5.18427 14.8679L5.81543 14.8679L5.81543 19.1159L5.18427 19.1159Z" fill="#FA36C3"/>
<path fill-rule="evenodd" clip-rule="evenodd" d="M27.0453 18.9541L27.0454 14.7061L27.6765 14.7061L27.6765 18.9541L27.0453 18.9541Z" fill="#FA36C3"/>
<path fill-rule="evenodd" clip-rule="evenodd" d="M22.4734 4.95587H19.1846V4.32471H22.4734V4.95587Z" fill="#FA36C3"/>
<path fill-rule="evenodd" clip-rule="evenodd" d="M22.7246 23.6837H19.4358V23.0525H22.7246V23.6837Z" fill="#FA36C3"/>
<path fill-rule="evenodd" clip-rule="evenodd" d="M6.05221 25.3509H2.76343V24.7197H6.05221V25.3509Z" fill="#FA36C3"/>
<path fill-rule="evenodd" clip-rule="evenodd" d="M27.5571 26.8243H24.2683V26.1931H27.5571V26.8243Z" fill="#FA36C3"/>
<path fill-rule="evenodd" clip-rule="evenodd" d="M13.4975 22.6104H10.2087V21.9792H13.4975V22.6104Z" fill="#FA36C3"/>
<path fill-rule="evenodd" clip-rule="evenodd" d="M9.02134 7.21692L8.54173 4.81885L9.77954 4.57129L10.2592 6.96936L9.02134 7.21692Z" fill="#FA36C3"/>
<path fill-rule="evenodd" clip-rule="evenodd" d="M19.942 6.82751L20.3523 4.61844L21.5934 4.84892L21.1831 7.058L19.942 6.82751Z" fill="#FA36C3"/>
<path fill-rule="evenodd" clip-rule="evenodd" d="M30.4221 1.26233H1.26233V30.7377H30.4221V1.26233ZM0 0V32H31.6844V0H0Z" fill="#FA36C3"/>
<path fill-rule="evenodd" clip-rule="evenodd" d="M25.6077 5.36334L30.7892 0.865727L31.203 1.34237L26.0215 5.83998L25.6077 5.36334Z" fill="#FA36C3"/>
<path fill-rule="evenodd" clip-rule="evenodd" d="M27.6857 6.24609L25.5343 5.9837L25.6107 5.35718L27.7621 5.61957L27.6857 6.24609Z" fill="#FA36C3"/>
<path fill-rule="evenodd" clip-rule="evenodd" d="M26.9725 9.29543L27.1095 5.73258L27.7402 5.75684L27.6032 9.31968L26.9725 9.29543Z" fill="#FA36C3"/>
<path fill-rule="evenodd" clip-rule="evenodd" d="M28.3201 7.51398H26.2646V6.88281H28.3201V7.51398Z" fill="#FA36C3"/>
<path fill-rule="evenodd" clip-rule="evenodd" d="M28.2306 8.71002H26.5405V8.07886H28.2306V8.71002Z" fill="#FA36C3"/>
<path fill-rule="evenodd" clip-rule="evenodd" d="M1.61965 1.81101C1.90764 2.43329 2.27048 3.19848 2.57501 3.78225C2.81485 4.24203 3.00319 4.57717 3.20394 4.92995C3.31986 4.47039 3.54088 4.13667 3.82968 3.91185C4.29412 3.55031 4.86389 3.52682 5.24856 3.62183L5.29767 3.63396L5.34052 3.66082L5.17289 3.92821C5.34052 3.66082 5.34056 3.66085 5.3406 3.66088L5.34069 3.66093L5.34091 3.66107L5.34147 3.66142L5.3431 3.66245C5.34382 3.66291 5.34467 3.66345 5.34565 3.66407C5.34645 3.66458 5.34734 3.66515 5.34832 3.66578C5.35264 3.66855 5.35863 3.67241 5.36611 3.67731C5.38104 3.6871 5.40197 3.70104 5.42734 3.71857C5.47787 3.75349 5.54716 3.80338 5.62249 3.86362C5.76371 3.97654 5.96225 4.15375 6.07598 4.35582C6.16857 4.52034 6.23717 4.67933 6.27319 4.85415C6.30936 5.02964 6.30914 5.20368 6.28542 5.39455C6.26398 5.56709 6.22839 5.7212 6.16195 5.8707C6.09551 6.02021 6.00497 6.14991 5.89123 6.28146C5.63873 6.5735 5.40596 6.68826 5.0782 6.79708C4.77182 6.8988 4.51674 6.96213 4.14097 6.87318C3.92608 6.82231 3.73577 6.74414 3.5679 6.61824C3.40002 6.49233 3.27169 6.33152 3.16269 6.13947L3.16198 6.13822L3.16128 6.13696C3.00808 5.8612 2.87427 5.6264 2.74687 5.40281C2.50894 4.9853 2.29333 4.60693 2.01541 4.07417C1.70363 3.47649 1.33562 2.70006 1.04685 2.07609C0.902171 1.76347 0.776832 1.48793 0.687649 1.29051C0.643051 1.19179 0.607478 1.11257 0.583031 1.05797C0.570807 1.03067 0.561364 1.00953 0.554963 0.995182L0.545166 0.973192C0.545157 0.973172 0.545151 0.973159 0.833526 0.844973C1.1219 0.716787 1.1219 0.716788 1.12191 0.716797L1.13138 0.738056C1.13766 0.752143 1.14698 0.773012 1.15908 0.800024C1.18327 0.854049 1.21856 0.932635 1.26284 1.03067C1.35143 1.22675 1.47595 1.5005 1.61965 1.81101ZM5.04809 4.22384C4.80427 4.17719 4.4748 4.20952 4.21738 4.4099C3.9635 4.60753 3.71117 5.02362 3.74824 5.8891C3.81357 5.99215 3.87798 6.06185 3.94659 6.11331C4.02799 6.17435 4.13238 6.22254 4.28636 6.25899C4.49443 6.30825 4.6163 6.28539 4.87932 6.19806C5.14107 6.11116 5.26004 6.04647 5.41378 5.86865C5.50113 5.76762 5.5515 5.69016 5.58518 5.61438C5.61887 5.53859 5.64261 5.44928 5.65908 5.31672C5.67688 5.17343 5.67359 5.07167 5.65502 4.98154C5.63631 4.89074 5.5985 4.79429 5.52594 4.66538C5.47561 4.57594 5.36012 4.46196 5.22831 4.35656C5.16714 4.30764 5.11017 4.26659 5.06857 4.23785C5.06121 4.23277 5.05436 4.22809 5.04809 4.22384Z" fill="#FA36C3"/>
<path fill-rule="evenodd" clip-rule="evenodd" d="M11.3895 24.9411L12.0015 24.8438C12.4207 25.9996 12.8581 26.7469 13.4677 27.3714C14.0615 27.9797 14.8334 28.4874 15.961 29.135C16.5787 28.8917 17.1302 28.7391 17.6194 28.6185C17.7749 28.5801 17.9215 28.5456 18.0607 28.5127C18.4022 28.4322 18.6994 28.362 18.9754 28.2724C19.3531 28.1497 19.6583 27.9993 19.9217 27.7613C20.1855 27.523 20.4267 27.1792 20.6468 26.6417L20.9975 25.7855L21.2431 26.6776C21.3697 27.1373 21.4495 27.5115 21.5152 27.8196C21.5249 27.8654 21.5344 27.9097 21.5436 27.9527C21.6163 28.2903 21.6736 28.5256 21.7637 28.73C21.9283 29.1032 22.2229 29.4199 23.1153 29.9821C23.6611 29.991 24.2001 29.9513 24.6631 29.8544C25.1587 29.7506 25.5281 29.5894 25.7391 29.3887L25.9956 29.1447L26.2086 29.4274C26.207 29.4252 26.219 29.4405 26.2621 29.4708C26.3023 29.4991 26.358 29.5324 26.4303 29.57C26.5751 29.6452 26.7681 29.728 26.9976 29.8145C27.4556 29.9872 28.0343 30.1654 28.6087 30.3203C29.1829 30.4752 29.745 30.6046 30.1685 30.6808C30.3817 30.7192 30.5515 30.7426 30.6672 30.7503C30.7269 30.7543 30.7592 30.7531 30.771 30.7518C30.7712 30.7518 30.7713 30.7517 30.7715 30.7517C30.768 30.7523 30.7577 30.7544 30.7434 30.7598C30.7275 30.7658 30.658 30.7935 30.6091 30.8751L31.1503 31.1998C31.0928 31.2957 31.0065 31.3351 30.9661 31.3504C30.9197 31.3678 30.875 31.3752 30.8419 31.3789C30.7747 31.3865 30.6988 31.385 30.6253 31.3801C30.4747 31.3701 30.2781 31.3419 30.0566 31.302C29.6108 31.2217 29.0305 31.0878 28.4443 30.9297C27.8584 30.7717 27.2586 30.5874 26.775 30.4051C26.5337 30.3142 26.3151 30.2214 26.1393 30.1301C26.0774 30.0979 26.0136 30.0624 25.9528 30.0233C25.6336 30.2403 25.2236 30.3819 24.7924 30.4721C24.2452 30.5867 23.6229 30.6268 23.0137 30.6113L22.9278 30.6091L22.8549 30.5638C21.8872 29.9614 21.4369 29.553 21.1862 28.9847C21.0666 28.7135 20.9983 28.4183 20.9266 28.0856C20.9171 28.0414 20.9075 27.9963 20.8976 27.95C20.8775 27.8557 20.8564 27.7568 20.8333 27.6524C20.6848 27.8788 20.5228 28.0688 20.3448 28.2296C19.9933 28.5473 19.5985 28.7336 19.1704 28.8727C18.868 28.9709 18.5323 29.0501 18.1795 29.1333C18.0454 29.165 17.9088 29.1972 17.7706 29.2313C17.2591 29.3574 16.6931 29.5157 16.0567 29.7768L15.9143 29.8352L15.7806 29.759C14.5782 29.0734 13.7002 28.5132 13.016 27.8123C12.5707 27.3561 12.2141 26.8474 11.8993 26.2195C11.731 27.1868 11.3953 27.8966 10.8873 28.458C10.195 29.2231 9.21321 29.6733 8.05967 30.1605L7.98528 30.1919L7.88427 30.1817C6.80387 30.0717 6.18083 30.0084 5.68997 29.776C5.26664 29.5756 4.95161 29.2547 4.51379 28.7599C3.67845 29.86 2.40018 30.2609 0.844206 30.4267L0.777344 29.7991C2.42802 29.6232 3.54665 29.1927 4.21041 28.0826L4.43294 27.7104L4.71866 28.0366C5.34094 28.7471 5.59961 29.0349 5.96001 29.2055C6.32293 29.3773 6.8023 29.4367 7.88839 29.5476C9.02022 29.0676 9.84692 28.6671 10.4193 28.0346C10.9899 27.404 11.3389 26.5031 11.3895 24.9411ZM30.7728 30.7515C30.7728 30.7515 30.7724 30.7516 30.7715 30.7517C30.7723 30.7516 30.7727 30.7515 30.7728 30.7515Z" fill="#FA36C3"/>
</svg>
